<?xml version="1.0" standalone="no"?>
<!DOCTYPE svg PUBLIC "-//W3C//DTD SVG 1.1//EN" "http://www.w3.org/Graphics/SVG/1.1/DTD/svg11.dtd" >
<svg xmlns="http://www.w3.org/2000/svg">
<metadata></metadata>
<defs>
<font id="espacioregular" horiz-adv-x="750" >
<font-face units-per-em="2048" ascent="1638" descent="-410" />
<missing-glyph horiz-adv-x="382" />
<glyph horiz-adv-x="0" />
<glyph unicode="&#xd;" horiz-adv-x="508" />
<glyph unicode=" "  horiz-adv-x="382" />
<glyph unicode="&#x09;" horiz-adv-x="382" />
<glyph unicode="&#xa0;" horiz-adv-x="382" />
<glyph unicode="!" horiz-adv-x="253" d="M50 1401v33h95v-1138h63v-33h-96v1138h-62zM55 73q0 31 22 52q22 22 52 22t52 -22q21 -21 21 -52q0 -30 -21 -51q-22 -22 -52 -22t-52 22q-22 21 -22 51zM89 73q0 -16 11 -28q12 -12 29 -12t28 12q12 12 12 28q0 17 -12 29q-11 12 -28 12t-29 -12q-11 -12 -11 -29z" />
<glyph unicode="&#x22;" horiz-adv-x="154" d="M30 1359v154h33v-154h-33zM90 1359v154h33v-154h-33z" />
<glyph unicode="#" horiz-adv-x="629" d="M50 604v33h152v160h-152v33h152v152h33v-152h159v152h34v-152h151v-33h-151v-160h151v-33h-151v-152h-34v152h-159v-152h-33v152h-152zM235 637h159v160h-159v-160z" />
<glyph unicode="$" horiz-adv-x="1014" d="M53 1069q0 123 114 232q120 114 287 132v122h33v-119h41v152h33v-155q213 -23 335 -185l3 -5v-78h-33v67q-113 145 -305 168v-688q401 -190 401 -344q0 -122 -114 -231q-120 -114 -287 -133v-121h-33v119h-41v-152h-33v155q-211 23 -335 189l-4 4l-1 81l34 1v-71 q116 -148 306 -171v687q-401 191 -401 344zM86 1069q0 -71 131 -168q97 -71 237 -139v638q-152 -18 -262 -123q-106 -99 -106 -208zM487 35h41v656l-41 19v-675zM487 746l41 -18v675h-41v-657zM561 38q152 18 262 122q106 100 106 208q0 71 -131 169q-97 71 -237 139v-638z " />
<glyph unicode="%" horiz-adv-x="1274" d="M48 1061q0 -166 86 -283q85 -118 206 -118q120 0 206 118q85 117 85 283t-85 284q-86 118 -206 118q-121 0 -206 -118q-86 -118 -86 -284zM82 1061q0 152 75 260q76 108 183 108q106 0 182 -108t76 -260t-76 -260t-182 -108q-107 0 -183 108q-75 108 -75 260zM103 -155 l8 14l986 1692l29 -17l-9 -14l-985 -1692zM650 378q0 -166 85 -284q86 -117 206 -117q121 0 206 117q86 118 86 284t-86 284q-85 117 -206 117q-120 0 -206 -117q-85 -118 -85 -284zM683 378q0 152 76 260q75 108 182 108t183 -108q75 -108 75 -260t-75 -260 q-76 -108 -183 -108t-182 108q-76 108 -76 260z" />
<glyph unicode="&#x26;" horiz-adv-x="1223" d="M52 356q0 127 162 273q96 86 222 158q-190 205 -190 373q0 140 69 213q58 61 147 61t147 -61q69 -73 69 -213q0 -158 -76 -270q-47 -70 -114 -111l351 -380v153h95v-33h-62v-156l103 -111q22 -25 63 -49q75 -43 133 -20l12 -30q-26 -10 -54 -10q-94 0 -178 86l-81 89 q-15 -143 -127 -230q-112 -88 -281 -88q-181 0 -296 99q-114 100 -114 257zM84 356q0 -157 119 -246q104 -78 259 -78q153 0 257 77q118 87 120 242l-380 412q-117 -67 -211 -148q-164 -142 -164 -259zM278 1160q0 -155 187 -356q61 35 106 100q74 106 74 256q0 114 -48 178 q-49 64 -135 64t-135 -64t-49 -178z" />
<glyph unicode="'" horiz-adv-x="96" d="M30 1359v154h33v-154h-33z" />
<glyph unicode="(" horiz-adv-x="354" d="M30 480v377q0 212 81 391q79 174 211 265v-40q-117 -90 -187 -252q-72 -168 -72 -364v-377q0 -196 72 -364q70 -162 187 -252v-40q-132 91 -211 265q-81 179 -81 391z" />
<glyph unicode=")" horiz-adv-x="351" d="M30 -136q118 90 187 252q72 168 72 364v377q0 196 -72 364q-69 162 -187 252v40q132 -91 211 -265q81 -179 81 -391v-377q0 -212 -81 -391q-79 -174 -211 -265v40z" />
<glyph unicode="*" horiz-adv-x="416" d="M50 1384l10 32l133 -41v138h33v-138l134 41l9 -32l-133 -40l83 -116l-27 -19l-82 115l-82 -115l-27 19l82 116z" />
<glyph unicode="+" horiz-adv-x="892" d="M51 700v34h380v380h33v-380h381v-34h-381v-380h-33v380h-380z" />
<glyph unicode="," horiz-adv-x="120" d="M30 -48l10 13q15 21 15 42v65h33v-65q1 -31 -22 -62l-9 -13z" />
<glyph unicode="-" horiz-adv-x="891" d="M51 700v34h794v-34h-794z" />
<glyph unicode="." horiz-adv-x="141" d="M55 0v72h33v-72h-33z" />
<glyph unicode="/" horiz-adv-x="645" d="M-52 -163l713 1687l31 -13l-714 -1687z" />
<glyph unicode="0" horiz-adv-x="933" d="M48 717q0 297 122 507q123 210 295 210q173 0 296 -210q122 -210 122 -507t-122 -507q-123 -210 -296 -210q-172 0 -295 210q-122 210 -122 507zM80 717q0 -283 113 -484t272 -201q160 0 273 201q112 201 112 484t-112 484q-113 201 -273 201q-159 0 -272 -201t-113 -484 z" />
<glyph unicode="1" horiz-adv-x="262" d="M50 0v34h61v1336h-61v34h95v-1370h63v-34h-158z" />
<glyph unicode="2" horiz-adv-x="870" d="M49 0v151l5 5q343 356 390 402q86 89 171 198q169 215 169 311q0 119 -111 224q-117 110 -269 110q-94 0 -180 -46q-87 -46 -142 -125v-67h-33v78l3 4q60 87 154 138q95 51 198 51q168 0 294 -120q119 -113 119 -247q0 -168 -349 -532q-78 -77 -386 -397v-105h702v64h33 v-97h-768z" />
<glyph unicode="3" horiz-adv-x="863" d="M47 194v77h33v-67q55 -79 141 -125t179 -46q151 0 267 110q110 105 110 224q0 95 -118 225q-61 66 -120 112l-17 13l17 13q60 46 120 112q118 130 118 225q0 119 -110 224q-116 110 -267 110q-93 0 -179 -46t-141 -125v-67h-33v78l3 4q59 87 153 138t197 51 q167 0 292 -120q118 -113 118 -247q0 -156 -235 -350q235 -194 235 -350q0 -134 -118 -247q-125 -120 -292 -120q-103 0 -197 51t-153 138z" />
<glyph unicode="4" horiz-adv-x="908" d="M53 700l83 701h-62v33h99l-83 -700h673v700h95v-33h-62v-1368h62v-33h-95v700h-710z" />
<glyph unicode="5" horiz-adv-x="870" d="M49 194v77h33v-67q119 -171 310 -171q162 0 277 124q115 125 115 300q0 415 -372 415h-363v562h768v-99h-33v66h-702v-496h330q199 0 302 -114t103 -334q0 -189 -125 -323t-300 -134q-102 0 -193 53q-90 51 -150 141z" />
<glyph unicode="6" horiz-adv-x="969" d="M50 703q0 302 153 517q153 214 368 214q171 0 308 -140l4 -5v-75h-33v62q-125 125 -279 125q-202 0 -345 -205q-143 -204 -143 -493q0 -63 6 -140q34 150 147 245q116 97 267 97q179 0 302 -130q124 -130 124 -318q0 -189 -125 -323t-301 -134q-154 0 -274 111 q-118 108 -146 270q-33 127 -33 322zM111 457q0 -37 6 -77q26 -149 134 -247q109 -100 252 -100q162 0 277 124q116 125 116 300q0 174 -114 295q-114 120 -279 120t-279 -120q-113 -121 -113 -295z" />
<glyph unicode="7" horiz-adv-x="846" d="M50 1336v98h745l-243 -1401h62v-33h-101l242 1401h-672v-65h-33z" />
<glyph unicode="8" horiz-adv-x="933" d="M49 370q0 123 82 218q81 94 212 129q-131 35 -212 129q-82 95 -82 218q0 153 124 261q123 109 297 109q175 0 298 -109q124 -108 124 -261q0 -123 -82 -218q-81 -94 -212 -129q131 -35 212 -129q82 -95 82 -218q0 -153 -124 -261q-123 -109 -298 -109q-174 0 -297 109 q-124 108 -124 261zM82 370q0 -139 114 -238t274 -99q161 0 275 99t114 238t-113 235q-112 96 -276 96q-163 0 -276 -96q-112 -96 -112 -235zM82 1064q0 -139 112 -235q113 -96 276 -96q164 0 276 96q113 96 113 235t-114 238t-275 99q-160 0 -274 -99t-114 -238z" />
<glyph unicode="9" horiz-adv-x="976" d="M50 977q0 189 125 323t300 134q155 0 275 -111q118 -108 146 -270q33 -127 33 -322q0 -302 -153 -517q-153 -214 -369 -214q-170 0 -307 140l-5 5v75h33v-62q126 -125 279 -125q202 0 345 205q144 204 144 493q0 63 -7 140q-33 -150 -147 -245q-115 -97 -267 -97 q-178 0 -302 130q-123 130 -123 318zM83 977q0 -174 114 -295q113 -120 278 -120q166 0 279 120q114 121 114 295q0 37 -7 77q-25 149 -133 247q-110 100 -253 100q-162 0 -277 -124q-115 -125 -115 -300z" />
<glyph unicode=":" horiz-adv-x="127" d="M55 0v72h33v-72h-33zM55 841v72h33v-72h-33z" />
<glyph unicode=";" horiz-adv-x="141" d="M30 -48l10 13q15 21 15 42v65h33v-65q1 -31 -22 -62l-9 -13zM55 841v72h33v-72h-33z" />
<glyph unicode="&#x3c;" horiz-adv-x="686" d="M41 756v29l593 324l16 -29l-567 -310l567 -309l-16 -29z" />
<glyph unicode="=" horiz-adv-x="629" d="M49 604v33h529v-33h-529zM49 797v33h529v-33h-529z" />
<glyph unicode="&#x3e;" horiz-adv-x="686" d="M41 461l567 309l-567 310l16 29l593 -324v-29l-593 -324z" />
<glyph unicode="?" horiz-adv-x="785" d="M48 1166v76l3 4q54 87 140 138q86 50 181 50q152 0 267 -118q108 -112 108 -245q0 -167 -201 -358q-45 -46 -92 -123q-92 -150 -97 -298h57v-32h-90v16q0 161 97 324q50 83 103 137q48 46 96 111q94 129 94 223q0 118 -100 221q-106 109 -242 109q-85 0 -163 -45 t-128 -123v-67h-33zM269 73q0 -30 21 -52q21 -21 51 -21t52 21q21 22 21 52t-21 51q-22 21 -52 21t-51 -21t-21 -51zM301 73q0 16 12 28q12 11 28 11q17 0 28 -11q12 -12 12 -28q0 -17 -12 -29q-11 -11 -28 -11q-16 0 -28 11q-12 12 -12 29z" />
<glyph unicode="@" horiz-adv-x="1117" d="M53 724q0 212 150 362q151 150 363 150t362 -150t150 -362q0 -190 -123 -334q-46 -51 -105 -29q-28 11 -46 36t-18 54v53q-33 -59 -91 -94q-60 -36 -129 -36q-105 0 -179 75q-75 76 -75 182t75 181q74 76 179 76q69 0 129 -36q58 -35 91 -95v5q0 133 -66 211 q-66 77 -180 77q-75 0 -137 -60v-37h-33v50l5 5q73 75 165 75q127 0 203 -87q76 -88 76 -234v-311q0 -43 43 -59q37 -14 68 20q115 134 115 312q0 198 -140 339q-141 140 -339 140q-199 0 -339 -140q-141 -141 -141 -339q0 -199 141 -339q140 -141 339 -141q124 0 232 60 l14 8l16 -29l-14 -8q-116 -64 -248 -64q-212 0 -363 150q-150 151 -150 363zM345 631q0 -93 65 -158q65 -66 156 -66t155 66q65 65 65 158q0 92 -65 158q-64 65 -155 65t-156 -65q-65 -66 -65 -158z" />
<glyph unicode="A" horiz-adv-x="1245" d="M50 0v33h62l487 1368h-63v33h98l503 -1401h62v-33h-85l-121 336h-738l-120 -336h-85zM267 369h715l-359 999z" />
<glyph unicode="B" horiz-adv-x="955" d="M47 0v33h57v1368h-57v33h498q151 0 259 -108q107 -107 107 -259q0 -122 -72 -219q-72 -96 -185 -131q113 -35 185 -131q72 -97 72 -219q0 -152 -107 -259q-108 -108 -259 -108h-498zM137 33h408q138 0 236 98q97 98 97 236t-97 236q-98 97 -236 97h-408v-667zM137 734 h408q138 0 236 97q97 98 97 236t-97 236q-98 98 -236 98h-408v-667z" />
<glyph unicode="C" horiz-adv-x="926" d="M49 703q0 303 153 517t369 214q170 0 307 -140l5 -4v-76h-33v62q-126 125 -279 125q-202 0 -346 -204q-143 -205 -143 -494q0 -288 143 -493q144 -204 346 -204q153 0 279 125v68h33v-82l-5 -4q-137 -141 -307 -141q-216 0 -369 215q-153 214 -153 516z" />
<glyph unicode="D" horiz-adv-x="962" d="M49 0v33h57v1368h-57v33h359q209 0 358 -214q148 -215 148 -517t-148 -517q-149 -214 -358 -214q-146 0 -269 112v-84h-90zM139 130q121 -125 269 -125q196 0 334 205q139 204 139 493t-139 493q-138 205 -334 205h-269v-1271z" />
<glyph unicode="E" horiz-adv-x="894" d="M50 0v33h57v1368h-57v33h798v-90h-33v57h-675v-667h424v-34h-424v-667h675v57h33v-90h-798z" />
<glyph unicode="F" horiz-adv-x="888" d="M50 0v33h57v1368h-57v33h798v-90h-33v57h-675v-667h424v-34h-424v-667h57v-33h-147z" />
<glyph unicode="G" horiz-adv-x="972" d="M46 703q0 303 153 517t368 214q171 0 308 -140l4 -5v-75h-33v62q-125 125 -279 125q-202 0 -345 -205q-143 -204 -143 -493q0 -288 143 -493t345 -205q154 0 279 126v570h-61v33h157v-33h-63v-584l-4 -5q-137 -140 -308 -140q-215 0 -368 215q-153 214 -153 516z" />
<glyph unicode="H" horiz-adv-x="969" d="M51 0v33h63v1368h-63v33h96v-700h675v700h96v-33h-63v-1368h63v-33h-96v700h-675v-700h-96z" />
<glyph unicode="I" horiz-adv-x="257" d="M50 0v33h62v1368h-62v33h157v-33h-62v-1368h62v-33h-157z" />
<glyph unicode="J" horiz-adv-x="926" d="M51 117v82h33v-68q126 -125 279 -125q202 0 345 204q144 205 144 493v698h-63v33h96v-731q0 -302 -153 -516q-153 -215 -369 -215q-170 0 -307 141z" />
<glyph unicode="K" horiz-adv-x="948" d="M50 0v33h62v1368h-62v33h95v-700h217l466 700h79v-33h-61l-455 -684l455 -684h61v-33h-79l-466 700h-217v-700h-95z" />
<glyph unicode="L" horiz-adv-x="905" d="M50 0v33h63v1368h-63v33h96v-1401h675v57h33v-90h-804z" />
<glyph unicode="M" horiz-adv-x="1351" d="M47 0v33h62v1368h-62v33h95l531 -1339l530 1339h96v-33h-63v-1368h63v-33h-96v1345l-530 -1340l-531 1340v-1345h-95z" />
<glyph unicode="N" horiz-adv-x="994" d="M47 0v33h63v1368h-63v33h96l714 -1362v1362h95v-33h-62v-1368h62v-33h-95l-714 1363v-1363h-96z" />
<glyph unicode="O" horiz-adv-x="1150" d="M51 703q0 302 155 517q154 214 372 214t373 -214q154 -215 154 -517t-154 -517q-155 -214 -373 -214t-372 214q-155 215 -155 517zM84 703q0 -289 145 -493q145 -205 349 -205t349 205q145 204 145 493t-145 493q-145 205 -349 205t-349 -205q-145 -204 -145 -493z" />
<glyph unicode="P" horiz-adv-x="969" d="M53 0v33h63v1369h-63v33h504q152 0 260 -108q107 -107 107 -259t-107 -259q-108 -108 -260 -108h-408v-701h-96zM149 734h408q138 0 236 98t98 236t-98 236t-236 98h-408v-668z" />
<glyph unicode="Q" horiz-adv-x="1152" d="M50 702q0 303 154 517q155 214 373 214t372 -214t154 -517q0 -347 -195 -566l128 -103h67v-33h-79l-138 111q-139 -139 -309 -139q-218 0 -373 214q-154 214 -154 516zM83 702q0 -218 88 -397q85 94 205 109q20 3 40 3q158 0 332 -152l135 -109q187 210 187 546 q0 289 -144 493q-145 205 -349 205t-349 -205q-145 -204 -145 -493zM188 274q69 -125 169 -196q103 -73 220 -73q156 0 283 127l-133 108q-165 143 -310 143q-18 0 -36 -2q-116 -14 -193 -107z" />
<glyph unicode="R" horiz-adv-x="962" d="M48 0v33h62v1369h-62v33h503q152 0 259 -108q108 -107 108 -259t-108 -259q-107 -108 -259 -108h-46l350 -668h63v-33h-83l-367 701h-325v-701h-95zM143 734h408q138 0 236 98t98 236t-98 236t-236 98h-408v-668z" />
<glyph unicode="S" horiz-adv-x="1004" d="M51 1068q0 134 131 247q139 120 323 120q114 0 218 -51q105 -50 170 -138l4 -4v-78h-34l1 67q-62 79 -158 125t-201 46q-168 0 -298 -110q-123 -105 -123 -224q0 -81 169 -195q121 -81 259 -140q119 -51 231 -122q217 -137 217 -244q0 -134 -131 -247 q-139 -120 -324 -120q-124 0 -235 61q-94 52 -153 131l-4 5l-1 81h34v-70q57 -73 143 -119q102 -56 216 -56q169 0 299 110q123 105 123 224q0 81 -170 195q-120 81 -258 140q-119 51 -231 122q-217 137 -217 244z" />
<glyph unicode="T" horiz-adv-x="996" d="M50 1337v97h899v-97h-33v64h-400v-1368h62v-33h-157v33h62v1368h-400v-64h-33z" />
<glyph unicode="U" horiz-adv-x="1040" d="M52 1401v33h96v-1067q0 -138 98 -236t236 -98h74q138 0 236 98t98 236v1067h96v-33h-63v-1034q0 -152 -108 -259q-107 -108 -259 -108h-74q-152 0 -259 108q-108 107 -108 259v1034h-63z" />
<glyph unicode="V" horiz-adv-x="1252" d="M48 1401v33h85l488 -1338l492 1338h86v-33h-62l-516 -1401l-511 1401h-62z" />
<glyph unicode="W" horiz-adv-x="1697" d="M52 1401v33h86l4 -12l350 -1332l358 659l357 -659l354 1344h86v-33h-61l-368 -1401l-368 680l-369 -680l-368 1401h-61z" />
<glyph unicode="X" horiz-adv-x="1047" d="M48 0v33h64l388 684l-388 684h-64v33h83l388 -684l391 684h83v-33h-64l-391 -684l391 -684h64v-33h-83l-391 684l-388 -684h-83z" />
<glyph unicode="Y" horiz-adv-x="1040" d="M48 1402v33h83l388 -684l392 684h83v-33h-64l-392 -686v-683h56v-33h-146v33h56v677l-392 692h-64z" />
<glyph unicode="Z" horiz-adv-x="870" d="M34 0l758 1401h-714v-57h-33v90h802l-758 -1401h714v57h33v-90h-802z" />
<glyph unicode="[" horiz-adv-x="262" d="M30 -176v1689h200v-33h-167v-1623h167v-33h-200z" />
<glyph unicode="\" horiz-adv-x="644" d="M-52 1511l30 13l714 -1687l-31 -13z" />
<glyph unicode="]" horiz-adv-x="258" d="M30 -143h167v1623h-167v33h200v-1689h-200v33z" />
<glyph unicode="^" horiz-adv-x="375" d="M53 1279l134 234l134 -234l-28 -16l-106 184l-105 -184z" />
<glyph unicode="_" horiz-adv-x="891" d="M51 -35h794v-33h-794v33z" />
<glyph unicode="`" horiz-adv-x="232" d="M49 1498l29 15l94 -181l-29 -15z" />
<glyph unicode="a" horiz-adv-x="747" d="M50 301q0 125 87 213q87 89 210 89q85 0 157 -46q70 -44 107 -118v17q0 176 -86 300t-208 124q-91 0 -165 -74v-42h-34v56l5 5q86 88 194 88q135 0 231 -134q97 -134 97 -323v-423h56v-33h-90v164q-37 -74 -107 -119q-72 -45 -157 -45q-123 0 -210 88q-87 89 -87 213z M83 301q0 -111 78 -189q77 -79 186 -79q110 0 187 79q77 78 77 189t-77 190t-187 79q-109 0 -186 -79q-78 -79 -78 -190z" />
<glyph unicode="b" horiz-adv-x="813" d="M51 0v33h63v1368h-63v33h96v-784q41 115 119 184q80 71 176 71q136 0 232 -133q96 -132 96 -320q0 -187 -96 -319q-96 -133 -232 -133q-96 0 -176 71q-78 69 -119 184v-255h-96zM147 452q0 -173 87 -296q86 -123 208 -123t208 123q87 123 87 296q0 174 -87 297 q-86 123 -208 123t-208 -123q-87 -123 -87 -297z" />
<glyph unicode="c" horiz-adv-x="622" d="M51 456q0 189 96 323t232 134q107 0 193 -88l5 -5v-56h-33v42q-75 74 -165 74q-122 0 -209 -124q-86 -124 -86 -300q0 -175 86 -299q87 -124 209 -124q90 0 165 74v45h33v-59l-5 -5q-86 -88 -193 -88q-136 0 -232 134t-96 322z" />
<glyph unicode="d" horiz-adv-x="813" d="M51 452q0 188 96 320q96 133 232 133q96 0 176 -71q78 -69 119 -184v784h96v-33h-63v-1368h63v-33h-96v255q-41 -115 -119 -184q-80 -71 -176 -71q-136 0 -232 133q-96 132 -96 319zM84 452q0 -173 87 -296q86 -123 208 -123t208 123q87 123 87 296q0 174 -87 297 q-86 123 -208 123t-208 -123q-87 -123 -87 -297z" />
<glyph unicode="e" horiz-adv-x="747" d="M48 454q0 187 96 319t232 132t232 -133q96 -132 96 -320v-16h-623q5 -168 91 -285q85 -118 204 -118q90 0 165 74v45h33v-59l-5 -5q-86 -88 -193 -88q-136 0 -232 133q-96 134 -96 321zM81 469h590q-5 168 -90 285q-86 118 -205 118t-205 -118q-86 -117 -90 -285z" />
<glyph unicode="f" horiz-adv-x="509" d="M52 0v33h62v949q0 187 96 319q96 133 232 133h16v-33h-16q-122 0 -209 -123q-86 -123 -86 -296v-248h224v-34h-224v-700h-95z" />
<glyph unicode="g" horiz-adv-x="810" d="M50 455q0 186 96 318q95 132 230 132q95 0 175 -71q78 -68 119 -183v254h94v-33h-61v-968q0 -188 -96 -321t-230 -133q-107 0 -193 88l-5 4v60h33v-46q75 -73 165 -73q121 0 207 123q86 124 86 298v354q-41 -114 -119 -183q-80 -70 -175 -70q-135 0 -230 132 q-96 132 -96 318zM83 455q0 -173 86 -295q86 -123 207 -123q122 0 208 123q86 122 86 295q0 172 -86 294q-86 123 -208 123q-121 0 -207 -123q-86 -122 -86 -294z" />
<glyph unicode="h" horiz-adv-x="884" d="M50 0v33h62v1368h-62v33h95v-784q41 115 119 184q81 71 176 71q136 0 232 -133q96 -132 96 -320v-419h62v-33h-95v452q0 174 -86 297q-87 123 -209 123t-208 -123q-87 -123 -87 -297v-452h-95z" />
<glyph unicode="i" horiz-adv-x="255" d="M50 0v33h63v839h-63v33h96v-872h62v-33h-158zM56 1361q0 30 22 51q21 22 51 22q31 0 52 -22q22 -21 22 -51q0 -31 -22 -52q-21 -22 -52 -22q-30 0 -51 22q-22 21 -22 52zM89 1361q0 -17 12 -29t28 -12q17 0 29 12t12 29q0 16 -12 28t-29 12q-16 0 -28 -12t-12 -28z" />
<glyph unicode="j" horiz-adv-x="250" d="M-384 -397h33v-46q74 -73 164 -73q121 0 207 123q86 124 86 298v1000h90v-33h-57v-967q0 -188 -95 -321q-96 -133 -231 -133q-107 0 -192 88l-5 4v60zM50 1361q0 30 22 52q21 21 51 21q31 0 52 -21q21 -22 21 -52t-21 -52q-21 -21 -52 -21q-30 0 -51 21q-22 22 -22 52z M83 1361q0 -17 12 -29q12 -11 28 -11q17 0 29 11q12 12 12 29t-12 28q-12 12 -29 12q-16 0 -28 -12q-12 -11 -12 -28z" />
<glyph unicode="k" horiz-adv-x="801" d="M50 0v33h62v1368h-62v33h95v-955h164l361 426h77v-33h-62l-347 -410l347 -429h62v-33h-78l-360 446h-164v-446h-95z" />
<glyph unicode="l" horiz-adv-x="244" d="M50 0v33h62v1368h-62v33h95v-1401h62v-33h-157z" />
<glyph unicode="m" horiz-adv-x="1499" d="M52 0v33h62v839h-62v33h95v-255q40 115 119 184q80 71 176 71q107 0 194 -88q84 -86 117 -223q33 137 118 223q86 88 194 88q135 0 231 -133q97 -132 97 -320v-419h62v-33h-96v452q0 174 -86 297t-208 123t-209 -123q-86 -123 -86 -297v-452h-33v452q0 174 -87 297 q-86 123 -208 123t-209 -123q-86 -123 -86 -297v-452h-95z" />
<glyph unicode="n" horiz-adv-x="873" d="M50 0v33h62v839h-62v33h95v-255q40 115 119 184q80 71 176 71q135 0 231 -133q97 -132 97 -320v-419h61v-33h-95v452q0 174 -86 297q-87 123 -208 123q-122 0 -209 -123q-86 -123 -86 -297v-452h-95z" />
<glyph unicode="o" horiz-adv-x="757" d="M49 452q0 188 96 320q96 133 232 133t232 -133q96 -132 96 -320q0 -187 -96 -319q-96 -133 -232 -133t-232 133q-96 132 -96 319zM82 452q0 -173 87 -296q86 -123 208 -123t208 123q87 123 87 296q0 174 -87 297q-86 123 -208 123t-208 -123q-87 -123 -87 -297z" />
<glyph unicode="p" horiz-adv-x="813" d="M50 -496h62v1368h-62v33h95v-255q41 115 119 184q80 71 176 71q136 0 232 -133q96 -132 96 -319t-96 -320t-232 -133q-96 0 -176 71q-78 69 -119 184v-784h-95v33zM145 453q0 -174 87 -297q86 -123 208 -123t208 123q87 123 87 297q0 173 -87 296q-86 123 -208 123 t-208 -123q-87 -123 -87 -296z" />
<glyph unicode="q" horiz-adv-x="813" d="M50 453q0 187 96 319q96 133 232 133q96 0 176 -71q78 -69 119 -184v255h95v-33h-62v-1368h62v-33h-95v784q-41 -115 -119 -184q-80 -71 -176 -71q-136 0 -232 133t-96 320zM83 453q0 -174 87 -297q86 -123 208 -123t208 123q87 123 87 297q0 173 -87 296 q-86 123 -208 123t-208 -123q-87 -123 -87 -296z" />
<glyph unicode="r" horiz-adv-x="488" d="M50 0v33h62v839h-62v33h95v-255q40 115 119 184q80 71 176 71v-33q-122 0 -209 -123q-86 -123 -86 -297v-452h-95z" />
<glyph unicode="s" horiz-adv-x="702" d="M49 670q0 86 87 158q93 77 216 77q163 0 257 -120l4 -4v-57h-33v45q-85 103 -228 103q-108 0 -191 -67q-79 -63 -79 -135q0 -44 98 -109q79 -53 178 -93q85 -35 159 -81q137 -84 137 -153q0 -85 -87 -157q-93 -77 -215 -77q-163 0 -259 122l-3 4l-1 59l33 1l1 -48 q87 -105 229 -105q107 0 190 67q79 63 79 134q0 45 -98 110q-79 53 -178 93q-85 35 -159 81q-137 84 -137 152z" />
<glyph unicode="t" horiz-adv-x="537" d="M53 872v33h204v496h-63v33h96v-529h203v-33h-203v-839h61v-33h-157v33h63v839h-204z" />
<glyph unicode="u" horiz-adv-x="874" d="M50 872v33h95v-453q0 -173 86 -296q87 -123 209 -123t208 123q87 123 87 296v453h94v-33h-61v-839h61v-33h-94v255q-41 -115 -119 -184q-81 -71 -176 -71q-136 0 -232 133q-96 132 -96 319v420h-62z" />
<glyph unicode="v" horiz-adv-x="898" d="M50 877v33h86l315 -818l318 818h84v-33h-62l-340 -877l-338 877h-63z" />
<glyph unicode="w" horiz-adv-x="1188" d="M47 874v33h88l228 -822l231 405l232 -405l227 822h88v-33h-62l-243 -874l-242 423l-242 -423l-242 874h-63z" />
<glyph unicode="x" horiz-adv-x="877" d="M51 0v33h62l306 421l-306 421h-62v33h79l309 -426l313 426h79v-33h-62l-309 -421l309 -421h62v-33h-79l-313 426l-309 -426h-79z" />
<glyph unicode="y" horiz-adv-x="865" d="M48 872v33h94v-449q0 -172 86 -295q86 -122 207 -122q115 0 199 111q84 110 93 271v484h95v-33h-62v-966q0 -187 -96 -320q-95 -133 -230 -133q-106 0 -192 87l-5 5v59h33v-45q74 -73 164 -73q121 0 207 123t86 297v350q-41 -112 -118 -180q-80 -70 -174 -70 q-135 0 -230 132q-96 132 -96 318v416h-61z" />
<glyph unicode="z" horiz-adv-x="820" d="M32 0l685 872h-634v-36h-34v69h736l-685 -872h634v35h34v-68h-736z" />
<glyph unicode="{" horiz-adv-x="438" d="M30 645v39q62 74 66 80q24 38 24 96q0 212 81 390q78 172 210 263v-40q-117 -90 -187 -251q-71 -165 -71 -362q0 -65 -27 -110q-18 -29 -76 -85q60 -58 76 -84q27 -43 27 -108q0 -196 71 -360q69 -159 187 -249v-40q-132 91 -210 261q-81 176 -81 388q0 58 -24 94 q1 -1 -66 78z" />
<glyph unicode="|" horiz-adv-x="124" d="M49 -176v1689h33v-1689h-33z" />
<glyph unicode="}" horiz-adv-x="438" d="M30 -136q118 90 187 249q72 164 72 360q0 65 27 108q16 26 75 84q-58 56 -75 85q-27 45 -27 110q0 197 -72 362q-69 161 -187 251v40q132 -91 211 -263q81 -178 81 -390q0 -58 23 -96q4 -6 66 -80v-39q-67 -79 -66 -78q-23 -36 -23 -94q0 -212 -81 -388 q-79 -170 -211 -261v40z" />
<glyph unicode="~" horiz-adv-x="573" d="M52 1436q28 55 90 72q69 19 153 -33q70 -44 126 -29q48 13 69 55l30 -15q-29 -55 -90 -72q-70 -19 -153 33q-71 44 -126 29q-49 -13 -70 -55z" />
<glyph unicode="&#xa1;" horiz-adv-x="255" d="M50 1018v33h96v-1138h62v-33h-96v1138h-62zM56 1241q0 30 21 51q22 22 52 22t52 -22q21 -21 21 -51q0 -31 -21 -52q-22 -22 -52 -22t-52 22q-21 21 -21 52zM89 1241q0 -17 12 -29q11 -12 28 -12t29 12q11 12 11 29q0 16 -11 28q-12 12 -29 12t-28 -12q-12 -12 -12 -28z " />
<glyph unicode="&#xa2;" horiz-adv-x="608" d="M45 717q0 152 96 259q96 108 232 108q28 0 58 -6l26 90l31 -8l-25 -91q56 -18 102 -55l6 -5v-50h-33v34q-38 29 -83 44l-176 -636q46 -18 94 -18q90 0 165 58v37h33v-53l-6 -5q-86 -70 -192 -70q-53 0 -103 19l-28 -103l-32 8l30 108q-88 44 -141 133q-54 92 -54 202z M78 717q0 -99 48 -181q46 -81 123 -121l174 631q-26 5 -50 5q-122 0 -209 -98q-86 -98 -86 -236z" />
<glyph unicode="&#xa3;" horiz-adv-x="1054" d="M48 761v34h165q-125 430 163 599q131 77 282 5q78 -38 126 -90l5 -5v-73h-34v60q-56 56 -128 86q-124 52 -234 -12q-269 -158 -145 -570h340v-34h-330q79 -288 21 -549q81 -31 249 -127q138 -78 263 -38q123 40 182 163v78h33v-85l-1 -4q-64 -139 -204 -184 q-46 -15 -96 -15q-96 0 -194 56q-159 90 -241 123q-20 -70 -51 -95q-38 -29 -76 -30q-31 -1 -52 17q-23 20 -25 53t18 68q40 69 163 31q55 262 -24 538h-175zM113 97q32 -28 85 14q24 19 41 79q-41 13 -69 13q-41 0 -57 -28q-30 -52 0 -78z" />
<glyph unicode="&#xa4;" horiz-adv-x="545" d="M53 717q0 80 53 142l-30 30l23 23l30 -30q62 53 142 53q81 0 142 -53l30 30l23 -23l-30 -30q53 -62 53 -142t-53 -142l30 -30l-23 -23l-30 30q-61 -53 -142 -53q-80 0 -142 53l-30 -30l-23 23l30 30q-53 62 -53 142zM86 717q0 -77 54 -131q55 -54 131 -54q77 0 131 54 t54 131t-54 131t-131 54q-76 0 -131 -54q-54 -54 -54 -131z" />
<glyph unicode="&#xa5;" horiz-adv-x="1047" d="M48 1401v33h83l388 -684l391 684h83v-33h-64l-381 -667h363v-34h-374v-182h374v-33h-374v-452h57v-33h-147v33h57v452h-374v33h374v182h-374v34h361l-379 667h-64z" />
<glyph unicode="&#xa6;" horiz-adv-x="113" d="M49 -176v679h33v-679h-33zM49 834v679h33v-679h-33z" />
<glyph unicode="&#xa7;" horiz-adv-x="700" d="M48 710q0 75 71 143q73 71 178 87q-249 116 -249 213q0 86 87 158q93 77 216 77q163 0 257 -120l4 -4v-58l-33 1v45q-85 103 -228 103q-108 0 -191 -67q-79 -63 -79 -135q0 -44 98 -109q79 -53 178 -94q85 -34 159 -80q137 -84 137 -153q0 -75 -71 -143q-73 -70 -178 -87 q249 -116 249 -213q0 -85 -87 -157q-93 -77 -215 -77q-163 0 -259 122l-3 4l-1 59l33 1l1 -48q87 -105 229 -105q107 0 190 67q79 63 79 134q0 45 -98 110q-79 53 -178 93q-85 35 -159 81q-137 84 -137 152zM81 710q0 -41 89 -103q71 -49 168 -91h13q107 0 190 66 q79 63 79 135q0 42 -88 103q-72 50 -169 92h-12q-108 0 -191 -67q-79 -63 -79 -135z" />
<glyph unicode="&#xa8;" horiz-adv-x="282" d="M51 1480v33h72v-33h-72zM157 1480v33h72v-33h-72z" />
<glyph unicode="&#xa9;" horiz-adv-x="579" d="M49 1187q0 102 72 174t173 72q102 0 174 -72t72 -174q0 -101 -72 -173t-174 -72q-101 0 -173 72t-72 173zM82 1187q0 -87 62 -150q63 -62 150 -62q88 0 150 62q63 63 63 150q0 88 -63 150q-62 63 -150 63q-87 0 -150 -63q-62 -62 -62 -150zM140 1187q0 64 47 109 q48 45 115 45q52 0 94 -29l7 -5v-35h-33v17q-31 19 -68 19q-54 0 -91 -35q-38 -36 -38 -86t38 -85q37 -35 91 -35q37 0 68 18v19h33v-37l-7 -5q-42 -28 -94 -28q-67 0 -115 45q-47 45 -47 108z" />
<glyph unicode="&#xaa;" horiz-adv-x="283" d="M30 1232q0 44 31 75q30 31 73 31q39 0 68 -26q-7 39 -28 64q-22 25 -49 25q-22 0 -41 -16v-20h-33v34l5 5q30 30 69 30q47 0 80 -45t33 -108v-121h18v-33h-51v29q-30 -29 -71 -29q-43 0 -73 31q-31 31 -31 74zM63 1232q0 -30 21 -51t50 -21t50 21t21 51t-21 51 q-21 22 -50 22t-50 -22q-21 -21 -21 -51z" />
<glyph unicode="&#xab;" horiz-adv-x="753" d="M50 604v25l418 317l21 -26l-353 -303l353 -304l-21 -26zM269 604v25l418 317l21 -26l-352 -303l352 -304l-21 -26z" />
<glyph unicode="&#xac;" horiz-adv-x="1014" />
<glyph unicode="&#xad;" horiz-adv-x="891" d="M51 700v34h794v-34h-794z" />
<glyph unicode="&#xae;" horiz-adv-x="577" d="M48 1187q0 102 72 174t173 72q102 0 174 -72t72 -174q0 -101 -72 -173t-174 -72q-101 0 -173 72t-72 173zM81 1187q0 -87 62 -150q63 -62 150 -62q88 0 151 62q62 63 62 150q0 88 -62 151q-63 62 -151 62q-87 0 -150 -62q-62 -63 -62 -151zM177 1032v33h15v245h-15v33 h137q44 0 74 -25q31 -25 31 -61q0 -33 -27 -57q-26 -25 -66 -28l71 -107h22v-33h-40l-92 139h-62v-139h-48zM225 1204h89q30 0 51 16q21 15 21 37t-21 38q-21 15 -51 15h-89v-106z" />
<glyph unicode="&#xaf;" horiz-adv-x="891" d="M51 1480v33h794v-33h-794z" />
<glyph unicode="&#xb0;" horiz-adv-x="206" d="M30 1440q0 30 22 51q21 22 51 22q31 0 52 -22q22 -21 22 -51q0 -31 -22 -52q-21 -22 -52 -22q-30 0 -51 22q-22 21 -22 52zM63 1440q0 -17 12 -29t28 -12q17 0 29 12t12 29q0 16 -12 28t-29 12q-16 0 -28 -12t-12 -28z" />
<glyph unicode="&#xb1;" horiz-adv-x="888" d="M51 219v33h794v-33h-794zM51 700v34h380v380h33v-380h381v-34h-381v-380h-33v380h-380z" />
<glyph unicode="&#xb2;" horiz-adv-x="232" d="M30 1129v48l5 4q61 64 76 79q62 65 62 89q0 19 -18 35q-19 17 -43 17q-29 0 -49 -24v-22h-33v32l3 4q29 43 79 43q38 0 67 -28q27 -26 27 -57q0 -38 -72 -112q-14 -14 -71 -74v-1h110v11h33v-44h-176z" />
<glyph unicode="&#xb3;" horiz-adv-x="235" d="M30 1176v32h33v-22q20 -24 49 -24q23 0 42 17q18 16 18 34q0 24 -41 55l-17 13l17 13q41 32 41 55q0 19 -18 35q-19 17 -42 17q-29 0 -49 -24v-22h-33v32l3 4q29 43 79 43q38 0 66 -28q27 -26 27 -57t-39 -68q39 -37 39 -68t-27 -57q-28 -27 -66 -27q-50 0 -79 42z" />
<glyph unicode="&#xb4;" horiz-adv-x="220" d="M49 1332l94 181l29 -15l-94 -181z" />
<glyph unicode="&#xb5;" horiz-adv-x="1180" />
<glyph unicode="&#xb6;" horiz-adv-x="556" d="M50 1075q0 149 91 254t220 105h34v-1434h-34v717q-129 0 -220 105t-91 253zM477 0v1434h33v-1434h-33z" />
<glyph unicode="&#xb7;" horiz-adv-x="141" d="M55 841v72h33v-72h-33z" />
<glyph unicode="&#xb8;" horiz-adv-x="162" d="M29 -206h17q44 0 54 19q17 33 -28 98l-6 8l37 64l34 -7l-32 -55q48 -78 24 -123q-19 -38 -83 -38h-17v34z" />
<glyph unicode="&#xb9;" horiz-adv-x="112" d="M31 1127v33h11v241h-11v33h44v-274h11v-33h-55z" />
<glyph unicode="&#xba;" horiz-adv-x="248" d="M31 1281q0 64 28 109q27 44 67 44t67 -44q28 -45 28 -109q0 -65 -28 -110q-27 -44 -67 -44t-67 44q-28 45 -28 110zM64 1281q0 -51 20 -87q19 -34 42 -34t42 34q20 36 20 87q0 50 -20 86q-19 34 -42 34t-42 -34q-20 -36 -20 -86z" />
<glyph unicode="&#xbb;" horiz-adv-x="757" d="M50 313l353 304l-353 303l21 26l418 -317v-25l-418 -317zM269 313l353 304l-353 303l21 26l418 -317v-25l-418 -317z" />
<glyph unicode="&#xbc;" horiz-adv-x="1708" />
<glyph unicode="&#xbd;" horiz-adv-x="1964" />
<glyph unicode="&#xbe;" horiz-adv-x="1708" />
<glyph unicode="&#xbf;" horiz-adv-x="799" d="M48 243q0 167 201 358q45 46 92 123q92 150 97 298h-57v32h90v-16q0 -161 -97 -324q-50 -83 -102 -137q-49 -46 -97 -111q-94 -129 -94 -223q0 -118 100 -221q106 -109 242 -109q85 0 163 45t128 123v67h33v-76l-2 -4q-55 -87 -141 -138q-86 -50 -181 -50 q-152 0 -267 118q-108 112 -108 245zM381 1241q0 30 21 52q22 21 52 21t51 -21q21 -22 21 -52t-21 -51t-51 -21t-52 21q-21 21 -21 51zM414 1241q0 -16 12 -28q11 -11 28 -11q16 0 28 11q12 12 12 28q0 17 -12 29q-12 11 -28 11q-17 0 -28 -11q-12 -12 -12 -29z" />
<glyph unicode="&#xc0;" horiz-adv-x="1240" d="M50 0h85l120 336h738l121 -336h85v33h-62l-503 1401h-98v-33h63l-487 -1368h-62v-33zM267 369l356 999l359 -999h-715zM507 1655l29 15l94 -181l-29 -15z" />
<glyph unicode="&#xc1;" horiz-adv-x="1252" d="M50 0h85l120 336h738l121 -336h85v33h-62l-503 1401h-98v-33h63l-487 -1368h-62v-33zM267 369l356 999l359 -999h-715zM602 1489l94 181l29 -15l-94 -181z" />
<glyph unicode="&#xc2;" horiz-adv-x="1540" d="M50 0h85l120 336h738l121 -336h85v33h-62l-503 1401h-98v-33h63l-487 -1368h-62v-33zM267 369l356 999l359 -999h-715zM488 1476l134 234l135 -234l-29 -16l-106 183l-105 -183z" />
<glyph unicode="&#xc3;" horiz-adv-x="1245" d="M50 0v33h62l487 1368h-63v33h98l503 -1401h62v-33h-85l-121 336h-738l-120 -336h-85zM267 369h715l-359 999zM391 1534q28 55 90 72q69 19 152 -33q71 -44 127 -29q47 13 69 55l29 -15q-28 -55 -90 -72q-69 -19 -152 33q-71 44 -126 29q-49 -14 -70 -55z" />
<glyph unicode="&#xc4;" horiz-adv-x="1245" d="M50 0h85l120 336h738l121 -336h85v33h-62l-503 1401h-98v-33h63l-487 -1368h-62v-33zM267 369l356 999l359 -999h-715zM534 1525v33h72v-33h-72zM640 1525v33h72v-33h-72z" />
<glyph unicode="&#xc5;" horiz-adv-x="1267" d="M62 0v33h62l489 1373q-50 18 -50 70q0 30 22 51q21 22 52 22q30 0 51 -22q22 -21 22 -51q0 -56 -54 -71l493 -1372h62v-33h-85l-121 336h-738l-120 -336h-85zM279 369h714l-358 999zM596 1476q0 -17 12 -29t29 -12q16 0 28 12t12 29q0 16 -12 28t-28 12q-17 0 -29 -12 t-12 -28z" />
<glyph unicode="&#xc6;" horiz-adv-x="1208" d="M48 0v33h62l487 1368h-63v33h630v-90h-34v57h-476v-667h225v-34h-225v-667h476v57h34v-90h-543v336h-368l-120 -336h-85zM265 369h356v999z" />
<glyph unicode="&#xc7;" horiz-adv-x="923" d="M48 703q0 303 153 517t369 214q170 0 307 -140l5 -4v-76h-33v62q-126 125 -279 125q-202 0 -346 -204q-143 -205 -143 -494q0 -288 143 -493q144 -204 346 -204q153 0 279 125v68h33v-82l-5 -5q-137 -140 -307 -140q-27 0 -54 4l-32 -55q48 -78 24 -123q-19 -38 -83 -38 h-17v34h17q44 0 54 19q17 33 -28 98l-6 8l37 64q-186 44 -309 247q-125 204 -125 473z" />
<glyph unicode="&#xc8;" horiz-adv-x="898" d="M50 0h798v90h-33v-57h-675v667h424v34h-424v667h675v-57h33v90h-798v-33h57v-1368h-57v-33zM394 1655l29 15l94 -181l-29 -15z" />
<glyph unicode="&#xc9;" horiz-adv-x="898" d="M50 0h798v90h-33v-57h-675v667h424v34h-424v667h675v-57h33v90h-798v-33h57v-1368h-57v-33zM450 1489l94 181l29 -15l-94 -181z" />
<glyph unicode="&#xca;" horiz-adv-x="898" d="M50 0h798v90h-33v-57h-675v667h424v34h-424v667h675v-57h33v90h-798v-33h57v-1368h-57v-33zM339 1476l134 234l135 -234l-29 -16l-106 183l-105 -183z" />
<glyph unicode="&#xcb;" horiz-adv-x="898" d="M50 0h798v90h-33v-57h-675v667h424v34h-424v667h675v-57h33v90h-798v-33h57v-1368h-57v-33zM388 1525v33h72v-33h-72zM494 1525v33h72v-33h-72z" />
<glyph unicode="&#xcc;" horiz-adv-x="262" d="M27 1655l29 15l94 -181l-29 -15zM50 0h157v33h-62v1368h62v33h-157v-33h62v-1368h-62v-33z" />
<glyph unicode="&#xcd;" horiz-adv-x="255" d="M50 0h157v33h-62v1368h62v33h-157v-33h62v-1368h-62v-33zM114 1489l94 181l29 -15l-94 -181z" />
<glyph unicode="&#xce;" horiz-adv-x="248" d="M-7 1476l134 234l134 -234l-28 -16l-106 183l-105 -183zM49 0h157v33h-62v1368h62v33h-157v-33h62v-1368h-62v-33z" />
<glyph unicode="&#xcf;" horiz-adv-x="253" d="M41 1525v33h72v-33h-72zM49 0h157v33h-62v1368h62v33h-157v-33h62v-1368h-62v-33zM147 1525v33h72v-33h-72z" />
<glyph unicode="&#xd0;" horiz-adv-x="1209" d="M49 701v33h301v667h-57v33h359q209 0 357 -214t148 -516t-148 -516t-357 -214q-146 0 -269 112v-85h-90v33h57v667h-301zM383 132q121 -125 269 -125q195 0 333 204q139 204 139 493q0 288 -139 492q-138 205 -333 205h-269v-667h300v-33h-300v-569z" />
<glyph unicode="&#xd1;" horiz-adv-x="997" d="M47 0v33h63v1368h-63v33h96l714 -1362v1362h95v-33h-62v-1368h62v-33h-95l-714 1363v-1363h-96zM264 1534q28 55 90 72q69 19 153 -33q71 -44 126 -29q48 13 69 55l30 -15q-29 -55 -90 -72q-70 -19 -153 33q-71 44 -126 29q-49 -14 -70 -55z" />
<glyph unicode="&#xd2;" horiz-adv-x="1146" d="M51 703q0 302 155 517q154 214 372 214t373 -214q154 -215 154 -517t-154 -517q-155 -214 -373 -214t-372 214q-155 215 -155 517zM84 703q0 -289 145 -493q145 -205 349 -205t349 205q145 204 145 493t-145 493q-145 205 -349 205t-349 -205q-145 -204 -145 -493z M469 1655l29 15l94 -181l-29 -15z" />
<glyph unicode="&#xd3;" horiz-adv-x="1146" d="M51 703q0 302 155 517q154 214 372 214t373 -214q154 -215 154 -517t-154 -517q-155 -214 -373 -214t-372 214q-155 215 -155 517zM84 703q0 -289 145 -493q145 -205 349 -205t349 205q145 204 145 493t-145 493q-145 205 -349 205t-349 -205q-145 -204 -145 -493z M564 1489l94 181l29 -15l-94 -181z" />
<glyph unicode="&#xd4;" horiz-adv-x="1146" d="M51 703q0 302 155 517q154 214 372 214t373 -214q154 -215 154 -517t-154 -517q-155 -214 -373 -214t-372 214q-155 215 -155 517zM84 703q0 -289 145 -493q145 -205 349 -205t349 205q145 204 145 493t-145 493q-145 205 -349 205t-349 -205q-145 -204 -145 -493z M444 1476l134 234l134 -234l-28 -16l-106 183l-105 -183z" />
<glyph unicode="&#xd5;" horiz-adv-x="1146" d="M51 703q0 302 155 517q154 214 372 214t373 -214q154 -215 154 -517t-154 -517q-155 -214 -373 -214t-372 214q-155 215 -155 517zM84 703q0 -289 145 -493q145 -205 349 -205t349 205q145 204 145 493t-145 493q-145 205 -349 205t-349 -205q-145 -204 -145 -493z M344 1534q29 55 90 72q70 19 153 -33q71 -44 126 -29q48 13 69 55l30 -15q-28 -55 -90 -72q-69 -19 -153 33q-71 44 -126 29q-49 -14 -69 -55z" />
<glyph unicode="&#xd6;" horiz-adv-x="1146" d="M51 703q0 302 155 517q154 214 372 214t373 -214q154 -215 154 -517t-154 -517q-155 -214 -373 -214t-372 214q-155 215 -155 517zM84 703q0 -289 145 -493q145 -205 349 -205t349 205q145 204 145 493t-145 493q-145 205 -349 205t-349 -205q-145 -204 -145 -493z M490 1525v33h72v-33h-72zM596 1525v33h72v-33h-72z" />
<glyph unicode="&#xd7;" horiz-adv-x="679" d="M49 448l269 269l-269 269l23 23l269 -269l269 269l24 -23l-269 -269l269 -269l-24 -23l-269 269l-269 -269z" />
<glyph unicode="&#xd8;" horiz-adv-x="1535" d="M51 717q0 297 210 507t507 210q287 0 495 -199l80 80l23 -23l-80 -80q199 -208 199 -495q0 -297 -210 -507t-507 -210q-287 0 -495 199l-80 -80l-23 23l80 80q-199 208 -199 495zM83 717q0 -273 190 -472l967 967q-199 190 -472 190q-283 0 -484 -201t-201 -484zM296 222 q199 -190 472 -190q283 0 484 201t201 484q0 273 -190 472z" />
<glyph unicode="&#xd9;" horiz-adv-x="1032" d="M52 1401v33h96v-1067q0 -138 98 -236t236 -98h74q138 0 236 98t98 236v1067h96v-33h-63v-1034q0 -152 -108 -259q-107 -108 -259 -108h-74q-152 0 -259 108q-108 107 -108 259v1034h-63zM427 1655l30 15l94 -181l-30 -15z" />
<glyph unicode="&#xda;" horiz-adv-x="1032" d="M52 1401v33h96v-1067q0 -138 98 -236t236 -98h74q138 0 236 98t98 236v1067h96v-33h-63v-1034q0 -152 -108 -259q-107 -108 -259 -108h-74q-152 0 -259 108q-108 107 -108 259v1034h-63zM487 1489l94 181l30 -15l-94 -181z" />
<glyph unicode="&#xdb;" horiz-adv-x="1032" d="M52 1401v33h96v-1067q0 -138 98 -236t236 -98h74q138 0 236 98t98 236v1067h96v-33h-63v-1034q0 -152 -108 -259q-107 -108 -259 -108h-74q-152 0 -259 108q-108 107 -108 259v1034h-63zM385 1476l134 234l134 -234l-28 -16l-106 183l-105 -183z" />
<glyph unicode="&#xdc;" horiz-adv-x="1032" d="M52 1401v33h96v-1067q0 -138 98 -236t236 -98h74q138 0 236 98t98 236v1067h96v-33h-63v-1034q0 -152 -108 -259q-107 -108 -259 -108h-74q-152 0 -259 108q-108 107 -108 259v1034h-63zM424 1525v33h72v-33h-72zM530 1525v33h72v-33h-72z" />
<glyph unicode="&#xdd;" horiz-adv-x="1040" d="M48 1402h64l392 -692v-677h-56v-33h146v33h-56v683l392 686h64v33h-83l-392 -684l-388 684h-83v-33zM489 1489l94 181l30 -15l-94 -181z" />
<glyph unicode="&#xde;" horiz-adv-x="746" d="M49 0v1434h33v-265h295q136 0 232 -132q96 -133 96 -320t-96 -320q-96 -132 -232 -132h-295v-265h-33zM82 298h295q122 0 208 123q87 123 87 296t-87 296q-86 123 -208 123h-295v-838z" />
<glyph unicode="&#xdf;" horiz-adv-x="771" d="M47 0v1091q0 142 90 242q89 101 216 101q126 0 216 -101q90 -100 90 -242q0 -110 -57 -197q-56 -84 -146 -119q120 -34 196 -136q76 -105 76 -239q0 -166 -110 -283t-265 -117v33q142 0 242 107q101 108 101 260q0 150 -100 253q-99 104 -243 104v32q115 0 194 88 q79 87 79 214q0 128 -80 219t-193 91t-193 -91t-80 -219v-1091h-33z" />
<glyph unicode="&#xe0;" horiz-adv-x="743" d="M50 301q0 -124 87 -213q87 -88 210 -88q85 0 157 45q70 45 107 119v-164h90v33h-56v423q0 189 -97 323q-96 134 -231 134q-108 0 -194 -88l-5 -5v-56h34v42q74 74 165 74q122 0 208 -124t86 -300v-17q-37 74 -107 118q-72 46 -157 46q-123 0 -210 -89q-87 -88 -87 -213z M83 301q0 111 78 190q77 79 186 79q110 0 187 -79t77 -190t-77 -189q-77 -79 -187 -79q-109 0 -186 79q-78 78 -78 189zM240 1283l29 15l94 -181l-29 -15z" />
<glyph unicode="&#xe1;" horiz-adv-x="747" d="M50 301q0 -124 87 -213q87 -88 210 -88q85 0 157 45q70 45 107 119v-164h90v33h-56v423q0 189 -97 323q-96 134 -231 134q-108 0 -194 -88l-5 -5v-56h34v42q74 74 165 74q122 0 208 -124t86 -300v-17q-37 74 -107 118q-72 46 -157 46q-123 0 -210 -89q-87 -88 -87 -213z M83 301q0 111 78 190q77 79 186 79q110 0 187 -79t77 -190t-77 -189q-77 -79 -187 -79q-109 0 -186 79q-78 78 -78 189zM313 1117l94 181l29 -15l-94 -181z" />
<glyph unicode="&#xe2;" horiz-adv-x="743" d="M50 301q0 -124 87 -213q87 -88 210 -88q85 0 157 45q70 45 107 119v-164h90v33h-56v423q0 189 -97 323q-96 134 -231 134q-108 0 -194 -88l-5 -5v-56h34v42q74 74 165 74q122 0 208 -124t86 -300v-17q-37 74 -107 118q-72 46 -157 46q-123 0 -210 -89q-87 -88 -87 -213z M83 301q0 111 78 190q77 79 186 79q110 0 187 -79t77 -190t-77 -189q-77 -79 -187 -79q-109 0 -186 79q-78 78 -78 189zM194 1064l134 234l134 -234l-28 -16l-106 183l-105 -183z" />
<glyph unicode="&#xe3;" d="M50 301q0 125 87 213q87 89 210 89q85 0 157 -46q70 -44 107 -118v17q0 176 -86 300t-208 124q-91 0 -165 -74v-42h-34v56l5 5q86 88 194 88q135 0 231 -134q97 -134 97 -323v-423h56v-33h-90v164q-37 -74 -107 -119q-72 -45 -157 -45q-123 0 -210 88q-87 89 -87 213z M83 301q0 -111 78 -189q77 -79 186 -79q110 0 187 79q77 78 77 189t-77 190t-187 79q-109 0 -186 -79q-78 -79 -78 -190zM94 1221q28 55 90 72q69 19 153 -33q71 -44 126 -29q48 13 69 55l30 -15q-29 -55 -90 -72q-70 -19 -153 33q-71 44 -126 29q-49 -14 -70 -55z" />
<glyph unicode="&#xe4;" d="M50 301q0 -124 87 -213q87 -88 210 -88q85 0 157 45q70 45 107 119v-164h90v33h-56v423q0 189 -97 323q-96 134 -231 134q-108 0 -194 -88l-5 -5v-56h34v42q74 74 165 74q122 0 208 -124t86 -300v-17q-37 74 -107 118q-72 46 -157 46q-123 0 -210 -89q-87 -88 -87 -213z M83 301q0 111 78 190q77 79 186 79q110 0 187 -79t77 -190t-77 -189q-77 -79 -187 -79q-109 0 -186 79q-78 78 -78 189zM238 1265v33h72v-33h-72zM344 1265v33h72v-33h-72z" />
<glyph unicode="&#xe5;" horiz-adv-x="743" d="M50 301q0 -124 87 -213q87 -88 210 -88q85 0 157 45q70 45 107 119v-164h90v33h-56v423q0 189 -97 323q-96 134 -231 134q-108 0 -194 -88l-5 -5v-56h34v42q74 74 165 74q122 0 208 -124t86 -300v-17q-37 74 -107 118q-72 46 -157 46q-123 0 -210 -89q-87 -88 -87 -213z M83 301q0 111 78 190q77 79 186 79q110 0 187 -79t77 -190t-77 -189q-77 -79 -187 -79q-109 0 -186 79q-78 78 -78 189zM253 1225q0 30 22 51q21 22 51 22q31 0 52 -22q22 -21 22 -51q0 -31 -22 -52q-21 -22 -52 -22q-30 0 -51 22q-22 21 -22 52zM286 1225q0 -17 12 -29 t28 -12q17 0 29 12t12 29q0 16 -12 28t-29 12q-16 0 -28 -12t-12 -28z" />
<glyph unicode="&#xe6;" horiz-adv-x="1315" d="M52 301q0 125 87 213q87 89 210 89q85 0 157 -46q70 -44 107 -118v18q0 175 -86 299t-208 124q-91 0 -165 -74v-41h-34v55l5 5q86 88 194 88q109 0 196 -90q85 -89 117 -230q32 137 117 224q87 88 195 88q135 0 231 -133q97 -132 97 -320v-16h-623q5 -168 90 -285 q86 -118 204 -118q91 0 166 74v45h33v-59l-5 -5q-86 -88 -194 -88q-98 0 -180 75q-79 73 -118 193q-13 -114 -97 -191q-85 -77 -199 -77q-123 0 -210 88q-87 89 -87 213zM85 301q0 -111 78 -189q77 -79 186 -79q110 0 187 79q77 78 77 189t-77 190t-187 79q-109 0 -186 -79 q-78 -79 -78 -190zM649 469h589q-4 168 -90 285q-86 118 -204 118q-120 0 -205 -118q-86 -117 -90 -285z" />
<glyph unicode="&#xe7;" horiz-adv-x="625" d="M52 457q0 188 96 322t231 134q108 0 194 -88l5 -5v-55h-33v41q-75 74 -166 74q-121 0 -208 -124q-86 -124 -86 -299q0 -176 86 -300q87 -124 208 -124q91 0 166 74v46h33v-60l-5 -5q-86 -88 -194 -88q-38 0 -75 13l-38 -65q48 -77 24 -123q-19 -37 -83 -37h-17v33h17 q44 0 54 20q17 33 -28 98l-6 8l46 78q-98 47 -159 164q-62 120 -62 268z" />
<glyph unicode="&#xe8;" d="M48 454q0 187 96 319t232 132t232 -133q96 -132 96 -320v-16h-623q5 -168 91 -285q85 -118 204 -118q90 0 165 74v45h33v-59l-5 -5q-86 -88 -193 -88q-136 0 -232 133q-96 134 -96 321zM81 469h590q-5 168 -90 285q-86 118 -205 118t-205 -118q-86 -117 -90 -285z M284 1283l30 15l94 -181l-30 -15z" />
<glyph unicode="&#xe9;" d="M48 454q0 187 96 319t232 132t232 -133q96 -132 96 -320v-16h-623q5 -168 91 -285q85 -118 204 -118q90 0 165 74v45h33v-59l-5 -5q-86 -88 -193 -88q-136 0 -232 133q-96 134 -96 321zM81 469h590q-5 168 -90 285q-86 118 -205 118t-205 -118q-86 -117 -90 -285z M344 1117l94 181l30 -15l-94 -181z" />
<glyph unicode="&#xea;" d="M48 454q0 187 96 319t232 132t232 -133q96 -132 96 -320v-16h-623q5 -168 91 -285q85 -118 204 -118q90 0 165 74v45h33v-59l-5 -5q-86 -88 -193 -88q-136 0 -232 133q-96 134 -96 321zM81 469h590q-5 168 -90 285q-86 118 -205 118t-205 -118q-86 -117 -90 -285z M242 1064l134 234l134 -234l-28 -16l-106 183l-106 -183z" />
<glyph unicode="&#xeb;" d="M48 454q0 187 96 319t232 132t232 -133q96 -132 96 -320v-16h-623q5 -168 91 -285q85 -118 204 -118q90 0 165 74v45h33v-59l-5 -5q-86 -88 -193 -88q-136 0 -232 133q-96 134 -96 321zM81 469h590q-5 168 -90 285q-86 118 -205 118t-205 -118q-86 -117 -90 -285z M296 1265v33h72v-33h-72zM402 1265v33h72v-33h-72z" />
<glyph unicode="&#xec;" horiz-adv-x="248" d="M44 1283l29 15l94 -181l-29 -15zM50 0v33h63v839h-63v33h96v-872h62v-33h-158z" />
<glyph unicode="&#xed;" horiz-adv-x="248" d="M50 0v33h63v839h-63v33h96v-872h62v-33h-158zM107 1117l94 181l29 -15l-94 -181z" />
<glyph unicode="&#xee;" horiz-adv-x="255" d="M-8 1064l134 234l134 -234l-28 -16l-106 183l-105 -183zM50 0v33h63v839h-63v33h96v-872h62v-33h-158z" />
<glyph unicode="&#xef;" horiz-adv-x="248" d="M36 1265v33h72v-33h-72zM50 0v33h63v839h-63v33h96v-872h62v-33h-158zM142 1265v33h72v-33h-72z" />
<glyph unicode="&#xf0;" horiz-adv-x="1068" d="M58 457q0 189 123 319q124 130 303 130q152 0 267 -96q114 -96 147 -246q7 77 7 140q0 288 -143 493l-273 -118l-13 30l266 115q-140 179 -326 179v33q206 0 357 -198l239 104l13 -31l-233 -101q146 -212 146 -506q0 -195 -33 -323q-28 -161 -146 -270 q-120 -111 -275 -111q-176 0 -301 134t-125 323zM91 457q0 -175 115 -299q116 -125 278 -125q143 0 253 100q108 98 133 247q7 40 7 77q0 175 -114 296q-114 120 -279 120t-279 -120q-114 -121 -114 -296z" />
<glyph unicode="&#xf1;" horiz-adv-x="884" d="M50 0v33h62v839h-62v33h95v-255q40 115 119 184q80 71 176 71q135 0 231 -133q97 -132 97 -320v-419h61v-33h-95v452q0 174 -86 297q-87 123 -208 123q-122 0 -209 -123q-86 -123 -86 -297v-452h-95zM221 1221q28 55 90 72q69 19 153 -33q71 -44 126 -29q48 13 69 55 l30 -15q-29 -55 -90 -72q-70 -19 -153 33q-71 44 -126 29q-49 -14 -70 -55z" />
<glyph unicode="&#xf2;" d="M49 452q0 188 96 320q96 133 232 133t232 -133q96 -132 96 -320q0 -187 -96 -319q-96 -133 -232 -133t-232 133q-96 132 -96 319zM82 452q0 -173 87 -296q86 -123 208 -123t208 123q87 123 87 296q0 174 -87 297q-86 123 -208 123t-208 -123q-87 -123 -87 -297zM285 1283 l30 15l94 -181l-30 -15z" />
<glyph unicode="&#xf3;" d="M49 452q0 188 96 320q96 133 232 133t232 -133q96 -132 96 -320q0 -187 -96 -319q-96 -133 -232 -133t-232 133q-96 132 -96 319zM82 452q0 -173 87 -296q86 -123 208 -123t208 123q87 123 87 296q0 174 -87 297q-86 123 -208 123t-208 -123q-87 -123 -87 -297zM345 1117 l94 181l30 -15l-94 -181z" />
<glyph unicode="&#xf4;" d="M49 452q0 188 96 320q96 133 232 133t232 -133q96 -132 96 -320q0 -187 -96 -319q-96 -133 -232 -133t-232 133q-96 132 -96 319zM82 452q0 -173 87 -296q86 -123 208 -123t208 123q87 123 87 296q0 174 -87 297q-86 123 -208 123t-208 -123q-87 -123 -87 -297zM243 1064 l134 234l134 -234l-28 -16l-106 183l-106 -183z" />
<glyph unicode="&#xf5;" d="M49 452q0 188 96 320q96 133 232 133t232 -133q96 -132 96 -320q0 -187 -96 -319q-96 -133 -232 -133t-232 133q-96 132 -96 319zM82 452q0 -173 87 -296q86 -123 208 -123t208 123q87 123 87 296q0 174 -87 297q-86 123 -208 123t-208 -123q-87 -123 -87 -297zM143 1221 q28 55 90 72q69 19 153 -33q71 -44 126 -29q48 13 69 55l30 -15q-29 -55 -90 -72q-70 -19 -153 33q-71 44 -126 29q-49 -14 -69 -55z" />
<glyph unicode="&#xf6;" d="M49 452q0 188 96 320q96 133 232 133t232 -133q96 -132 96 -320q0 -187 -96 -319q-96 -133 -232 -133t-232 133q-96 132 -96 319zM82 452q0 -173 87 -296q86 -123 208 -123t208 123q87 123 87 296q0 174 -87 297q-86 123 -208 123t-208 -123q-87 -123 -87 -297zM288 1265 v33h72v-33h-72zM394 1265v33h72v-33h-72z" />
<glyph unicode="&#xf7;" horiz-adv-x="892" d="M51 700h794v34h-794v-34zM373 396q0 30 21 51q22 22 52 22q31 0 52 -22q22 -21 22 -51q0 -31 -22 -52q-21 -22 -52 -22q-30 0 -52 22q-21 21 -21 52zM373 1040q0 30 21 51q22 22 52 22q31 0 52 -22q22 -21 22 -51q0 -31 -22 -52q-21 -22 -52 -22q-30 0 -52 22 q-21 21 -21 52zM406 396q0 -17 12 -29t28 -12q17 0 29 12t12 29q0 16 -12 28t-29 12q-16 0 -28 -12t-12 -28zM406 1040q0 -17 12 -29t28 -12q17 0 29 12t12 29q0 16 -12 28t-29 12q-16 0 -28 -12t-12 -28z" />
<glyph unicode="&#xf8;" horiz-adv-x="1023" d="M50 463q0 192 136 327q136 136 327 136q182 0 315 -124l66 65l23 -23l-65 -66q124 -133 124 -315q0 -191 -136 -327q-135 -136 -327 -136q-182 0 -315 124l-66 -65l-23 23l65 66q-124 133 -124 315zM83 463q0 -168 115 -292l607 607q-124 115 -292 115q-178 0 -304 -126 t-126 -304zM221 148q124 -115 292 -115q178 0 304 126t126 304q0 168 -115 292z" />
<glyph unicode="&#xf9;" horiz-adv-x="877" d="M47 872h62v-420q0 -187 96 -319q96 -133 232 -133q95 0 176 71q78 69 119 184v-255h94v33h-61v839h61v33h-94v-453q0 -173 -87 -296q-86 -123 -208 -123t-209 123q-86 123 -86 296v453h-95v-33zM345 1283l29 15l94 -181l-29 -15z" />
<glyph unicode="&#xfa;" horiz-adv-x="870" d="M47 872h62v-420q0 -187 96 -319q96 -133 232 -133q95 0 176 71q78 69 119 184v-255h94v33h-61v839h61v33h-94v-453q0 -173 -87 -296q-86 -123 -208 -123t-209 123q-86 123 -86 296v453h-95v-33zM405 1117l94 181l29 -15l-94 -181z" />
<glyph unicode="&#xfb;" horiz-adv-x="870" d="M47 872h62v-420q0 -187 96 -319q96 -133 232 -133q95 0 176 71q78 69 119 184v-255h94v33h-61v839h61v33h-94v-453q0 -173 -87 -296q-86 -123 -208 -123t-209 123q-86 123 -86 296v453h-95v-33zM302 1064l135 234l134 -234l-29 -16l-105 183l-106 -183z" />
<glyph unicode="&#xfc;" horiz-adv-x="870" d="M47 872h62v-420q0 -187 96 -319q96 -133 232 -133q95 0 176 71q78 69 119 184v-255h94v33h-61v839h61v33h-94v-453q0 -173 -87 -296q-86 -123 -208 -123t-209 123q-86 123 -86 296v453h-95v-33zM358 1265v33h72v-33h-72zM464 1265v33h72v-33h-72z" />
<glyph unicode="&#xfd;" horiz-adv-x="868" d="M48 872h61v-416q0 -186 96 -318q95 -132 230 -132q94 0 174 70q77 68 118 180v-350q0 -174 -86 -297t-207 -123q-90 0 -164 73v45h-33v-59l5 -5q86 -87 192 -87q135 0 230 133q96 133 96 320v966h62v33h-95v-484q-9 -161 -93 -271q-84 -111 -199 -111q-121 0 -207 122 q-86 123 -86 295v449h-94v-33zM403 1117l94 181l29 -15l-93 -181z" />
<glyph unicode="&#xfe;" d="M49 0v1434h33v-519q41 115 119 184q80 70 176 70q136 0 232 -132q96 -133 96 -320t-96 -320q-96 -132 -232 -132q-96 0 -176 70q-78 69 -119 184v-519h-33zM82 717q0 -173 87 -296q86 -123 208 -123t208 123q87 123 87 296t-87 296q-86 123 -208 123t-208 -123 q-87 -123 -87 -296z" />
<glyph unicode="&#xff;" horiz-adv-x="868" d="M48 872h61v-416q0 -186 96 -318q95 -132 230 -132q94 0 174 70q77 68 118 180v-350q0 -174 -86 -297t-207 -123q-90 0 -164 73v45h-33v-59l5 -5q86 -87 192 -87q135 0 230 133q96 133 96 320v966h62v33h-95v-484q-9 -161 -93 -271q-84 -111 -199 -111q-121 0 -207 122 q-86 123 -86 295v449h-94v-33zM354 1265v33h72v-33h-72zM460 1265v33h72v-33h-72z" />
<glyph unicode="&#x2c6;" horiz-adv-x="395" d="M48 1343l136 170h25l136 -170l-26 -21l-123 154l-122 -154z" />
<glyph unicode="&#x2dc;" horiz-adv-x="580" d="M52 1436q28 55 90 72q69 19 153 -33q70 -44 126 -29q48 13 69 55l30 -15q-29 -55 -90 -72q-70 -19 -153 33q-71 44 -126 29q-49 -13 -70 -55z" />
<glyph unicode="&#x2000;" horiz-adv-x="855" />
<glyph unicode="&#x2001;" horiz-adv-x="1710" />
<glyph unicode="&#x2002;" horiz-adv-x="855" />
<glyph unicode="&#x2003;" horiz-adv-x="1710" />
<glyph unicode="&#x2004;" horiz-adv-x="570" />
<glyph unicode="&#x2005;" horiz-adv-x="427" />
<glyph unicode="&#x2006;" horiz-adv-x="285" />
<glyph unicode="&#x2007;" horiz-adv-x="285" />
<glyph unicode="&#x2008;" horiz-adv-x="213" />
<glyph unicode="&#x2009;" horiz-adv-x="342" />
<glyph unicode="&#x200a;" horiz-adv-x="95" />
<glyph unicode="&#x2010;" horiz-adv-x="891" d="M51 700v34h794v-34h-794z" />
<glyph unicode="&#x2011;" horiz-adv-x="891" d="M51 700v34h794v-34h-794z" />
<glyph unicode="&#x2012;" horiz-adv-x="891" d="M51 700v34h794v-34h-794z" />
<glyph unicode="&#x2013;" horiz-adv-x="891" d="M51 700v34h794v-34h-794z" />
<glyph unicode="&#x2014;" horiz-adv-x="884" d="M51 700v34h794v-34h-794z" />
<glyph unicode="&#x2018;" horiz-adv-x="116" d="M30 1373v65q0 31 22 62l10 13l27 -20l-10 -13q-15 -21 -15 -41v-66h-34z" />
<glyph unicode="&#x2019;" horiz-adv-x="118" d="M30 1393l10 13q15 21 15 42v65h33v-65q1 -31 -22 -62l-9 -13z" />
<glyph unicode="&#x201a;" horiz-adv-x="119" d="M30 1393l10 13q15 21 15 42v65h33v-65q1 -31 -22 -62l-9 -13z" />
<glyph unicode="&#x201c;" horiz-adv-x="174" d="M30 1373v65q0 31 22 62l10 13l27 -20l-10 -13q-15 -21 -15 -41v-66h-34zM90 1373v65q0 31 22 62l10 13l27 -20l-10 -13q-15 -21 -15 -41v-66h-34z" />
<glyph unicode="&#x201d;" horiz-adv-x="176" d="M30 1393l10 13q15 21 15 42v65h33v-65q1 -31 -22 -62l-9 -13zM90 1393l10 13q15 21 15 42v65h33v-65q1 -31 -22 -62l-9 -13z" />
<glyph unicode="&#x201e;" horiz-adv-x="177" d="M30 1393l10 13q15 21 15 42v65h33v-65q1 -31 -22 -62l-9 -13zM90 1393l10 13q15 21 15 42v65h33v-65q1 -31 -22 -62l-9 -13z" />
<glyph unicode="&#x2022;" horiz-adv-x="247" d="M51 717q0 30 22 51q21 22 51 22q31 0 52 -22q22 -21 22 -51q0 -31 -22 -52q-21 -22 -52 -22q-30 0 -51 22q-22 21 -22 52z" />
<glyph unicode="&#x2026;" horiz-adv-x="391" d="M55 0v72h33v-72h-33zM175 0v72h33v-72h-33zM295 0v72h33v-72h-33z" />
<glyph unicode="&#x202f;" horiz-adv-x="342" />
<glyph unicode="&#x2039;" horiz-adv-x="530" d="M50 604v25l418 317l21 -26l-353 -303l353 -304l-21 -26z" />
<glyph unicode="&#x203a;" horiz-adv-x="530" d="M50 313l353 304l-353 303l21 26l418 -317v-25l-418 -317z" />
<glyph unicode="&#x205f;" horiz-adv-x="427" />
<glyph unicode="&#x20ac;" horiz-adv-x="1032" d="M55 607v32h114q-4 40 -4 79t4 79h-114v32h117q28 259 171 432q144 175 335 175q167 0 302 -138l4 -4v-75h-32v61q-124 124 -274 124q-178 0 -312 -166q-134 -163 -162 -409h666l-13 -32h-656q-3 -41 -3 -79t3 -79h597l-12 -32h-582q28 -246 162 -409q134 -166 312 -166 q150 0 274 124v67h32v-81l-4 -4q-135 -138 -302 -138q-191 0 -335 175q-143 173 -171 432h-117z" />
<glyph unicode="&#x2122;" horiz-adv-x="558" d="M30 1390v44h201v-44h-33v11h-51v-239h11v-33h-55v33h11v239h-51v-11h-33zM251 1129v33h11v239h-11v33h44l94 -224l95 224h44v-33h-11v-239h11v-33h-44v220l-95 -224l-94 225v-221h-44z" />
<glyph unicode="&#x25fc;" horiz-adv-x="910" d="M0 0v910h910v-910h-910z" />
</font>
</defs>
</svg>
